<?xml version="1.0" standalone="no"?>
<!DOCTYPE svg PUBLIC "-//W3C//DTD SVG 20010904//EN"
 "http://www.w3.org/TR/2001/REC-SVG-20010904/DTD/svg10.dtd">
<svg version="1.0" xmlns="http://www.w3.org/2000/svg"
 width="1366.000000pt" height="768.000000pt" viewBox="0 0 1366.000000 768.000000"
 preserveAspectRatio="xMidYMid meet">
<metadata>
Created by potrace 1.16, written by Peter Selinger 2001-2019
</metadata>
<g transform="translate(0.000000,768.000000) scale(0.100000,-0.100000)"
fill="#000000" stroke="none">
<path d="M6460 5544 c-247 -66 -441 -258 -510 -505 -28 -102 -28 -266 1 -369
55 -200 186 -357 374 -450 110 -55 178 -70 310 -70 132 0 200 15 310 70 188
93 319 250 374 450 29 103 29 267 1 369 -69 248 -265 441 -515 506 -76 19
-270 19 -345 -1z m414 -48 c97 -37 188 -99 266 -183 38 -41 70 -79 70 -83 0
-5 -30 7 -66 26 -36 19 -74 34 -85 34 -11 0 -49 30 -87 68 -37 37 -93 81 -124
97 -37 19 -58 36 -58 48 0 22 7 22 84 -7z m-506 -19 c-14 -11 -11 -13 24 -14
22 -1 55 -7 75 -14 30 -10 34 -14 29 -38 -5 -24 -5 -25 6 -4 15 30 77 53 180
66 83 10 89 10 140 -14 31 -14 82 -53 125 -95 l73 -71 -20 -69 c-35 -127 -32
-124 -92 -125 l-53 -2 47 -6 c33 -5 57 -16 79 -36 50 -49 129 -161 130 -186 1
-17 3 -19 6 -6 2 9 12 17 20 17 9 0 45 16 80 35 36 20 70 32 76 29 8 -5 8 -3
0 7 -7 7 -13 30 -13 50 0 21 -9 66 -20 100 -25 81 -19 88 10 12 36 -95 49
-178 46 -287 -5 -168 -62 -303 -185 -438 -195 -212 -512 -277 -773 -157 l-69
33 30 24 c61 47 60 56 -11 130 -35 37 -74 83 -86 103 -21 35 -21 39 -7 79 20
57 12 63 -10 7 l-16 -44 -42 7 c-47 8 -93 26 -121 49 -18 15 -18 15 -7 -7 7
-13 11 -35 9 -50 -2 -21 -9 -11 -30 48 -49 138 -56 271 -19 355 38 85 62 115
96 116 29 1 29 1 5 8 -34 9 -36 37 -11 120 18 61 28 76 89 132 61 59 193 148
217 148 6 0 3 -5 -7 -12z"/>
<path d="M6455 5256 c-4 -25 -14 -47 -22 -50 -26 -11 -120 -76 -165 -116 -42
-36 -48 -39 -79 -30 -44 13 -50 5 -7 -9 33 -11 35 -14 47 -88 7 -43 22 -106
32 -140 15 -49 17 -68 9 -85 -10 -21 -10 -21 3 -5 12 15 32 17 153 16 l139 0
89 -112 89 -111 -13 -35 c-21 -62 -72 -143 -92 -149 -18 -4 -17 -6 4 -18 64
-37 127 -65 161 -70 29 -5 37 -10 33 -23 -6 -14 -5 -15 6 0 7 8 27 20 44 26
41 15 101 52 155 100 42 36 44 40 38 78 -4 22 -16 63 -27 92 l-20 52 24 67
c33 89 25 93 -10 5 l-27 -69 -67 -16 c-37 -9 -97 -20 -134 -24 l-67 -8 -44 50
c-23 28 -64 78 -89 112 l-47 61 50 129 c46 121 57 139 105 171 14 9 9 9 -16
-1 l-35 -13 -61 57 c-33 31 -81 70 -107 86 -44 28 -45 30 -40 72 8 56 -4 54
-12 -2z"/>
</g>
</svg>
