<?xml version="1.0" standalone="no"?>
<!DOCTYPE svg PUBLIC "-//W3C//DTD SVG 20010904//EN"
 "http://www.w3.org/TR/2001/REC-SVG-20010904/DTD/svg10.dtd">
<svg version="1.0" xmlns="http://www.w3.org/2000/svg"
 width="1366.000000pt" height="768.000000pt" viewBox="0 0 1366.000000 768.000000"
 preserveAspectRatio="xMidYMid meet">
<metadata>
Created by potrace 1.16, written by Peter Selinger 2001-2019
</metadata>
<g transform="translate(0.000000,768.000000) scale(0.100000,-0.100000)"
fill="#000000" stroke="none">
<path d="M10469 4840 c145 -13 172 -19 226 -48 131 -72 158 -242 79 -493 -64
-203 -233 -503 -397 -704 -99 -121 -287 -304 -391 -379 -69 -50 -249 -156
-276 -163 -14 -3 -45 -16 -70 -28 -100 -50 -336 -101 -500 -109 -157 -8 -286
-9 -297 -3 -4 3 -46 8 -93 11 -47 4 -107 11 -135 16 -27 5 -79 12 -115 15 -92
9 -139 17 -248 39 -37 8 -116 20 -177 26 -60 6 -175 24 -255 40 -80 15 -188
31 -240 34 -51 4 -144 14 -205 22 -60 8 -177 17 -258 21 -122 5 -150 4 -158
-8 -15 -23 -11 -25 44 -27 147 -5 279 -16 436 -38 95 -13 177 -21 181 -19 4 3
30 1 56 -4 27 -5 67 -12 90 -15 22 -4 56 -11 75 -16 19 -6 49 -10 66 -10 18 0
33 -4 33 -9 0 -4 12 -8 28 -7 15 1 47 -5 71 -11 24 -7 47 -11 51 -8 4 3 50 -5
101 -16 94 -21 139 -29 172 -30 9 0 17 -3 17 -7 0 -4 17 -8 38 -10 20 -1 62
-4 92 -7 30 -3 65 -6 78 -6 12 -1 22 -5 22 -9 0 -4 23 -8 51 -9 28 0 54 -3 59
-6 13 -8 91 -18 153 -19 31 0 57 -5 57 -10 0 -4 7 -3 15 4 12 10 15 10 15 0 0
-10 4 -10 16 1 13 10 17 10 24 0 6 -11 8 -11 12 0 4 12 7 12 21 0 10 -8 17 -9
17 -3 0 7 10 8 28 3 15 -4 37 -6 50 -5 12 1 22 -3 22 -9 0 -5 7 -4 15 3 12 10
15 10 15 -1 1 -10 4 -9 14 3 10 13 15 15 24 6 8 -8 12 -8 12 -2 0 6 14 10 30
9 17 -1 30 1 30 5 0 4 7 7 15 7 8 0 15 -5 15 -10 0 -5 6 -4 14 2 11 9 15 9 19
-1 3 -8 6 -6 6 6 1 12 6 16 16 12 8 -3 15 0 15 7 0 8 4 6 10 -3 7 -12 10 -12
10 -1 0 7 6 11 15 7 8 -3 15 0 15 5 0 7 11 9 25 7 14 -3 25 -1 25 3 0 12 23 7
32 -6 4 -5 8 -1 8 10 0 17 2 17 10 5 8 -13 10 -12 10 3 0 16 10 20 53 20 9 0
17 3 17 7 0 13 49 18 54 6 3 -7 5 -6 5 2 1 7 6 10 11 7 6 -3 13 1 16 10 9 22
64 50 64 33 0 -9 3 -8 10 2 5 8 10 11 10 5 0 -5 7 1 16 13 8 12 21 22 29 22 7
0 27 11 43 25 17 14 34 25 39 24 17 -5 59 23 68 44 6 12 24 29 42 38 17 8 48
33 68 55 20 21 40 39 45 39 4 0 19 15 34 33 15 17 34 32 42 32 8 0 14 5 14 12
0 6 27 38 60 70 33 33 60 61 60 64 0 12 73 99 82 99 6 0 24 25 40 55 17 30 45
75 64 99 19 24 34 49 34 56 0 6 10 22 21 34 12 13 45 69 74 125 28 55 56 110
62 121 28 51 63 137 63 155 0 11 5 20 10 20 6 0 10 13 10 29 0 17 4 32 9 35
23 15 31 107 19 236 -6 71 -15 130 -18 130 -4 0 -5 11 -3 24 7 35 -22 89 -60
111 -17 10 -33 18 -34 17 -2 0 -20 6 -40 15 -27 11 -78 16 -173 19 -131 3
-132 2 -41 -6z"/>
<path d="M3005 4810 c-16 -4 -75 -18 -130 -30 -97 -23 -115 -29 -209 -79 -52
-28 -135 -104 -153 -141 -15 -31 -53 -145 -53 -160 0 -5 5 -10 10 -10 6 0 10
7 10 16 0 32 57 130 109 187 30 32 79 74 109 94 91 57 267 113 364 113 26 0
50 5 53 10 7 12 -65 12 -110 0z"/>
<path d="M10265 4785 c-5 -2 -75 -11 -155 -20 -80 -9 -248 -36 -375 -60 -856
-165 -1277 -221 -1905 -256 -308 -18 -1687 -18 -1905 -2 -88 7 -229 18 -314
25 -88 6 -146 15 -135 19 10 4 -9 4 -43 2 -45 -4 -63 -2 -63 6 0 7 -5 9 -11 5
-13 -8 -161 5 -155 14 2 4 -16 5 -41 3 -28 -2 -43 1 -39 7 3 6 -12 8 -41 4
-36 -4 -44 -2 -38 8 6 9 4 11 -4 5 -17 -10 -143 4 -136 16 4 5 -1 6 -10 3 -19
-8 -246 27 -240 36 3 4 -6 5 -18 3 -12 -2 -155 18 -317 46 -542 92 -845 126
-1040 117 -160 -8 -227 -19 -335 -52 -185 -58 -311 -173 -362 -332 -36 -114
-20 -351 31 -467 8 -16 25 -55 39 -86 56 -123 219 -331 314 -399 23 -17 48
-37 56 -44 34 -34 164 -113 292 -177 141 -70 231 -99 470 -149 199 -42 242
-45 595 -44 342 1 412 5 775 49 66 8 145 16 175 19 121 12 178 18 235 26 33 5
96 12 140 15 44 4 150 13 235 21 198 19 318 26 303 18 -7 -3 -13 -13 -13 -22
0 -12 -10 -18 -38 -19 -20 -2 -98 -9 -172 -17 -74 -8 -171 -18 -215 -21 -44
-3 -129 -12 -190 -20 -775 -102 -984 -120 -1350 -120 -524 2 -892 97 -1225
317 -52 34 -106 75 -120 90 -14 15 -43 41 -65 58 -58 45 -168 174 -216 255
-23 39 -45 72 -48 75 -8 6 -64 129 -85 185 -41 111 -61 261 -48 372 7 59 6 70
-5 61 -8 -7 -13 -35 -13 -77 0 -40 -5 -72 -13 -80 -9 -11 -9 -14 1 -18 15 -6
16 -71 1 -133 -6 -27 -7 -52 -1 -65 5 -11 19 -51 31 -90 22 -68 59 -147 116
-250 16 -27 37 -67 48 -87 10 -21 25 -38 32 -38 8 0 17 -9 20 -21 4 -12 42
-56 84 -98 43 -42 83 -87 90 -99 6 -12 17 -22 22 -22 18 0 108 -62 123 -84 7
-12 31 -29 52 -40 79 -38 119 -59 134 -70 8 -7 32 -18 54 -25 21 -7 47 -22 58
-33 11 -11 26 -17 35 -14 9 4 24 -1 35 -10 10 -10 21 -14 24 -11 4 3 16 1 28
-5 11 -7 28 -11 37 -10 9 2 19 -4 22 -12 4 -9 13 -13 22 -10 9 4 25 -2 37 -12
12 -11 18 -13 14 -6 -4 6 -2 12 3 12 6 0 11 -4 11 -8 0 -15 73 -33 81 -21 5 8
8 8 13 1 4 -6 13 -9 21 -6 8 3 28 -1 45 -9 16 -9 32 -12 35 -8 7 12 55 1 55
-13 0 -6 4 -5 9 3 7 11 15 11 47 1 22 -7 45 -17 52 -23 8 -6 12 -6 12 3 0 9 4
9 17 -1 9 -8 14 -9 10 -3 -7 13 111 13 131 0 7 -4 12 -2 12 4 0 6 5 8 12 4 6
-4 45 -8 85 -10 41 -1 76 -4 79 -7 3 -2 21 1 42 8 26 9 41 10 49 3 9 -7 13 -7
13 2 0 10 3 10 15 0 10 -8 15 -9 15 -1 0 7 8 8 23 2 13 -5 29 -6 35 -2 7 4 27
6 44 5 18 -1 36 3 40 9 4 8 11 7 22 -2 9 -8 16 -9 16 -3 0 5 9 8 20 5 13 -3
20 0 20 8 0 11 2 11 10 -1 9 -13 11 -13 19 -1 8 13 12 13 27 0 10 -8 15 -9 11
-3 -5 8 12 11 58 9 36 -1 65 1 65 4 0 4 18 6 40 5 22 0 40 3 40 7 0 4 8 5 19
2 10 -3 22 0 25 6 5 8 13 8 27 1 10 -6 19 -7 19 -3 0 5 18 8 40 7 22 0 40 2
40 6 0 4 11 6 25 5 14 -2 25 0 25 4 0 4 20 7 45 7 25 -1 45 2 45 7 0 4 11 5
25 3 14 -3 25 -2 25 2 0 7 11 9 93 13 26 1 49 5 51 8 2 3 24 6 48 6 23 0 46 4
49 8 3 5 35 9 71 10 37 1 63 6 60 11 -3 5 4 7 15 4 12 -3 63 1 114 8 52 8 121
16 154 19 173 15 268 27 291 36 20 7 21 5 18 -34 -4 -36 -16 -253 -40 -697
l-7 -115 -41 -45 c-27 -28 -47 -63 -56 -93 -12 -46 -12 -53 18 -142 53 -154
43 -232 -41 -322 -58 -63 -78 -104 -84 -175 -8 -80 15 -137 73 -185 60 -49 74
-77 65 -133 -10 -61 -23 -82 -102 -166 -87 -92 -95 -122 -54 -202 18 -35 71
-80 101 -86 11 -3 33 -10 49 -16 21 -8 141 -11 418 -10 275 0 387 -2 387 -10
0 -6 4 -9 9 -6 4 3 27 8 51 11 23 3 55 13 71 22 37 22 69 75 62 102 -5 20 -13
20 -367 23 l-361 3 -58 28 c-65 32 -105 79 -114 131 -9 56 4 84 72 154 123
126 138 219 46 287 -53 39 -71 72 -71 135 0 47 6 62 34 99 20 27 53 53 86 70
64 31 89 63 97 119 8 57 -4 106 -32 141 -24 28 -25 32 -25 205 0 148 2 178 15
182 8 4 15 19 15 34 0 16 5 32 11 36 19 11 49 87 49 123 0 19 14 57 33 90 l32
56 -3 249 -4 249 325 -7 c188 -3 369 -12 429 -21 57 -8 167 -19 245 -25 78 -5
171 -17 205 -25 35 -8 131 -21 213 -30 83 -8 197 -24 255 -35 58 -11 134 -22
170 -25 79 -6 108 -10 284 -35 109 -15 170 -18 295 -14 324 11 574 73 801 199
378 210 725 614 884 1032 113 296 79 484 -99 552 -47 18 -273 38 -300 26z
m-5585 -310 c113 -9 275 -22 360 -30 85 -9 234 -22 330 -30 96 -8 225 -19 285
-25 613 -56 1586 -65 2335 -20 191 11 567 44 755 65 364 41 773 53 865 26 131
-39 190 -96 190 -185 -1 -101 -56 -200 -179 -324 -256 -258 -634 -399 -1184
-442 -137 -11 -495 -8 -717 5 -246 16 -990 43 -1330 50 -482 9 -749 16 -995
26 -634 25 -1057 116 -1354 292 -119 71 -200 145 -251 231 -29 49 -35 70 -34
115 0 31 6 69 14 85 23 47 111 112 177 131 152 44 401 54 733 30z"/>
</g>
</svg>
